<?xml version="1.0" standalone="no"?>
<!DOCTYPE svg PUBLIC "-//W3C//DTD SVG 20010904//EN"
 "http://www.w3.org/TR/2001/REC-SVG-20010904/DTD/svg10.dtd">
<svg version="1.0" xmlns="http://www.w3.org/2000/svg"
 width="600.000000pt" height="300.000000pt" viewBox="0 0 600.000000 300.000000"
 preserveAspectRatio="xMidYMid meet">

<g transform="translate(0.000000,300.000000) scale(0.100000,-0.100000)"
fill="#000000" stroke="none">
<path d="M1420 1500 l0 -550 1465 0 1465 0 0 550 0 550 -1465 0 -1465 0 0
-550z m621 119 c11 -5 17 -14 14 -20 -4 -5 -14 -5 -26 2 -11 5 -32 9 -47 7
-21 -2 -27 -8 -27 -28 0 -20 7 -27 40 -38 70 -22 92 -74 47 -109 -33 -26 -122
-10 -122 22 0 19 10 18 34 0 25 -19 60 -19 76 0 22 27 7 49 -43 63 -60 17 -79
48 -53 87 12 19 25 25 52 25 19 0 44 -5 55 -11z m99 -36 l0 -47 50 49 c27 27
53 46 57 42 4 -4 -13 -27 -37 -51 l-43 -45 48 -55 c58 -68 39 -74 -27 -9 l-48
47 0 -47 c0 -35 -4 -47 -15 -47 -12 0 -15 18 -15 105 0 87 3 105 15 105 11 0
15 -12 15 -47z m180 -58 c0 -63 -4 -105 -10 -105 -6 0 -10 42 -10 105 0 63 4
105 10 105 6 0 10 -42 10 -105z m90 10 l0 -95 50 0 c28 0 50 -4 50 -10 0 -6
-27 -10 -60 -10 l-60 0 0 105 c0 63 4 105 10 105 6 0 10 -38 10 -95z m170 0
l0 -95 50 0 c28 0 50 -4 50 -10 0 -6 -28 -10 -65 -10 l-65 0 0 105 c0 87 3
105 15 105 12 0 15 -17 15 -95z m262 78 c22 -20 23 -46 3 -63 -14 -11 -13 -14
5 -27 24 -17 26 -60 3 -85 -12 -13 -31 -18 -75 -18 l-58 0 0 105 0 105 52 0
c34 0 58 -6 70 -17z m196 1 c25 -17 29 -50 7 -74 -13 -14 -12 -22 5 -68 16
-42 17 -52 6 -52 -8 0 -21 19 -28 43 -13 38 -18 42 -51 45 l-37 3 0 -45 c0
-25 -4 -46 -10 -46 -6 0 -10 42 -10 105 l0 105 48 0 c27 0 57 -7 70 -16z m102
-89 c0 -87 -3 -105 -15 -105 -12 0 -15 18 -15 105 0 87 3 105 15 105 12 0 15
-18 15 -105z m207 71 c35 -41 32 -108 -6 -147 -26 -25 -37 -29 -85 -29 l-56 0
0 106 0 106 62 -4 c51 -4 65 -9 85 -32z m214 24 c10 -6 19 -17 19 -25 0 -19
-14 -19 -30 0 -7 8 -25 15 -39 15 -44 0 -63 -21 -68 -77 -5 -42 -2 -54 16 -72
23 -23 70 -28 89 -9 7 7 12 22 12 35 0 19 -5 23 -30 23 -16 0 -30 5 -30 10 0
6 20 10 45 10 l45 0 0 -55 c0 -42 -3 -55 -15 -55 -8 0 -15 5 -15 12 0 9 -3 9
-12 0 -7 -7 -29 -12 -49 -12 -42 0 -73 29 -84 80 -8 38 11 96 38 115 25 17 80
20 108 5z m209 0 c0 -5 -22 -10 -50 -10 l-50 0 0 -35 c0 -35 0 -35 45 -35 25
0 45 -4 45 -10 0 -5 -20 -10 -45 -10 l-45 0 0 -40 0 -40 50 0 c28 0 50 -4 50
-10 0 -6 -28 -10 -65 -10 l-65 0 0 105 0 105 65 0 c37 0 65 -4 65 -10z m80
-179 c0 -14 -18 -23 -30 -16 -6 4 -8 11 -5 16 8 12 35 12 35 0z"/>
<path d="M2740 1576 c0 -34 2 -36 33 -36 43 0 59 12 55 41 -2 20 -9 24 -45 27
l-43 3 0 -35z"/>
<path d="M2740 1480 l0 -40 45 0 c39 0 47 4 57 25 16 36 -4 55 -58 55 l-44 0
0 -40z"/>
<path d="M2940 1575 c0 -41 16 -51 57 -38 18 6 29 18 31 33 4 28 -12 40 -55
40 -31 0 -33 -2 -33 -35z"/>
<path d="M3230 1525 l0 -85 34 0 c54 0 78 26 78 85 0 59 -24 85 -78 85 l-34 0
0 -85z"/>
</g>
</svg>
